<?xml version="1.0" encoding="UTF-8" standalone="no"?>
<svg
   xmlns:dc="http://purl.org/dc/elements/1.1/"
   xmlns:cc="http://creativecommons.org/ns#"
   xmlns:rdf="http://www.w3.org/1999/02/22-rdf-syntax-ns#"
   xmlns:svg="http://www.w3.org/2000/svg"
   xmlns="http://www.w3.org/2000/svg"
   xmlns:sodipodi="http://sodipodi.sourceforge.net/DTD/sodipodi-0.dtd"
   xmlns:inkscape="http://www.inkscape.org/namespaces/inkscape"
   viewBox="0 0 500 500"
   version="1.1"
   id="svg36"
   sodipodi:docname="logo_2021-01.silhouette.svg"
   inkscape:version="0.92.3 (2405546, 2018-03-11)"
   width="500"
   height="500">
  <metadata
     id="metadata40">
    <rdf:RDF>
      <cc:Work
         rdf:about="">
        <dc:format>image/svg+xml</dc:format>
        <dc:type
           rdf:resource="http://purl.org/dc/dcmitype/StillImage" />
        <dc:title></dc:title>
      </cc:Work>
    </rdf:RDF>
  </metadata>
  <sodipodi:namedview
     pagecolor="#ffffff"
     bordercolor="#666666"
     borderopacity="1"
     objecttolerance="10"
     gridtolerance="10"
     guidetolerance="10"
     inkscape:pageopacity="0"
     inkscape:pageshadow="2"
     inkscape:window-width="1314"
     inkscape:window-height="1146"
     id="namedview38"
     showgrid="false"
     inkscape:zoom="1.449495"
     inkscape:cx="268.25704"
     inkscape:cy="242.60337"
     inkscape:window-x="459"
     inkscape:window-y="107"
     inkscape:window-maximized="0"
     inkscape:current-layer="svg36"
     fit-margin-top="0"
     fit-margin-left="0"
     fit-margin-right="0"
     fit-margin-bottom="0" />
  <defs
     id="defs4">
    <style
       id="style2">.cls-1{font-size:19.35px;font-family:BrandonGrotesque-Regular, Brandon Grotesque;letter-spacing:0.1em;}.cls-1,.cls-2,.cls-4{fill:#fff;}.cls-3{fill:none;stroke-width:10px;}.cls-3,.cls-4,.cls-5{stroke:#fff;stroke-miterlimit:10;}</style>
  </defs>
  <path
     d="M 268.79688 18.572266 C 258.67712 19.04824 248.17508 39.618047 237.91602 40.208984 C 227.52602 40.788984 214.19461 20.289219 203.72461 22.449219 C 193.55461 24.529219 189.34539 48.599219 179.27539 52.199219 C 169.20539 55.799219 150.69586 39.849453 141.50586 44.689453 C 132.08586 49.649453 134.79523 73.959844 126.36523 80.089844 C 117.77523 86.319844 95.595625 76.168828 88.015625 83.548828 C 80.435625 90.928828 89.915391 113.44906 83.525391 121.78906 C 77.135391 130.12906 52.894609 126.70016 47.724609 135.91016 C 42.554609 145.12016 57.964297 164.12016 54.154297 173.91016 C 50.344297 183.70016 26.135859 187.3193 23.755859 197.5293 C 21.375859 207.7393 41.495703 221.72039 40.595703 232.15039 C 39.695703 242.58039 17.475703 252.81039 18.095703 263.40039 C 18.735703 273.83039 41.965703 281.41008 44.095703 291.83008 C 46.175703 302.01008 27.755703 318.11016 31.345703 328.16016 C 34.935703 338.21016 59.384609 338.97016 64.224609 348.16016 C 69.164609 357.61016 56.036016 378.17937 62.166016 386.60938 C 68.366016 395.19937 91.985234 388.9593 99.365234 396.5293 C 106.74523 404.0993 99.92512 427.55047 108.28516 433.98047 C 116.64516 440.41047 137.60539 427.81047 146.77539 432.98047 C 155.94539 438.15047 156.06547 462.61969 165.85547 466.42969 C 175.64547 470.23969 192.32539 452.29969 202.52539 454.67969 C 212.72539 457.05969 219.79484 480.51016 230.21484 481.41016 C 240.63484 482.31016 251.48617 460.39906 262.07617 459.78906 C 272.52617 459.18906 285.79586 479.71891 296.25586 477.62891 C 306.43586 475.54891 310.65484 451.47891 320.71484 447.87891 C 330.77484 444.27891 349.2943 460.24039 358.48438 455.40039 C 367.89436 450.44039 365.045 426.24 373.625 420 C 382.205 413.76 404.40461 423.9093 411.97461 416.5293 C 419.54461 409.1493 410.01508 386.65906 416.45508 378.28906 C 422.89508 369.91906 447.08565 373.35062 452.26562 364.14062 C 457.44563 354.93062 442.02594 335.94063 445.83594 326.14062 C 449.64594 316.34062 473.86609 312.71977 476.24609 302.50977 C 478.62609 292.29977 458.5143 278.31063 459.4043 267.89062 C 460.2943 257.47062 482.5143 247.23063 481.9043 236.64062 C 481.2643 226.21062 458.0343 218.63898 455.9043 208.20898 C 453.8243 198.02898 472.25602 181.93891 468.66602 171.87891 C 465.06602 161.78891 440.61539 161.04961 435.77539 151.84961 C 430.84539 142.39961 443.9657 121.83039 437.8457 113.40039 C 431.6357 104.82039 408.01477 111.07023 400.63477 103.49023 C 393.25477 95.910272 400.09461 72.449297 391.72461 66.029297 C 383.35461 59.609297 362.39461 72.199297 353.22461 67.029297 C 344.05461 61.859297 343.9543 37.389844 334.1543 33.589844 C 324.3543 29.789844 307.70438 47.710078 297.48438 45.330078 C 287.26436 42.950078 280.19539 19.479844 269.77539 18.589844 C 269.44977 18.562031 269.12329 18.556912 268.79688 18.572266 z M 249.99609 57.080078 C 356.48916 57.080078 442.92578 143.5167 442.92578 250.00977 C 442.92578 356.50284 356.48916 442.93945 249.99609 442.93945 C 143.50302 442.93945 57.064453 356.50284 57.064453 250.00977 C 57.064453 143.5167 143.50302 57.080078 249.99609 57.080078 z M 249.99609 67.080078 C 148.90743 67.080078 67.064453 148.9211 67.064453 250.00977 C 67.064453 351.09843 148.90743 432.93945 249.99609 432.93945 C 351.08476 432.93945 432.92578 351.09843 432.92578 250.00977 C 432.92578 148.9211 351.08476 67.080078 249.99609 67.080078 z M 267.35547 109.35938 C 271.60562 109.35559 276.77359 110.34977 282.99609 113.00977 A 70 70 0 0 0 309.99609 118.76953 L 321.375 161.66016 C 321.375 161.66016 311.92453 163.0193 297.14453 157.5293 C 281.00453 151.5293 259.82453 145.71891 251.89453 161.87891 A 20.65 20.65 0 0 0 237.0957 151.25977 C 215.3157 147.11977 203.58469 162.40891 182.05469 160.12891 L 188.9043 117.98047 A 63.22 63.22 0 0 0 215.44531 112.89062 C 227.89531 107.67065 244.62547 108.25914 250.10547 118.36914 C 250.10547 118.36914 254.605 109.37054 267.35547 109.35938 z M 232.1582 114.20898 C 223.98771 114.14421 215.41867 116.76508 210.6543 119.04883 A 40.29 40.29 0 0 1 192.86523 122.54883 L 189.36523 153.90039 C 203.07523 154.33039 214.08578 147.98047 222.67578 145.98047 C 241.01578 141.67047 250.01564 152.98047 250.01562 152.98047 L 248.52539 120.66016 C 244.62727 115.93516 238.51303 114.25937 232.1582 114.20898 z M 268.54102 114.42383 C 261.97323 114.44143 255.90844 116.42867 251.69531 120.5293 L 252.81445 153.18945 C 252.81445 153.18945 261.26594 141.66945 281.08594 147.18945 C 294.16594 150.83945 298.29609 155.11992 313.74609 154.91992 L 306.45508 123.42969 A 66.8 66.8 0 0 1 284.14453 117.89062 C 279.06078 115.58939 273.64929 114.41014 268.54102 114.42383 z M 203.65234 175.26562 C 205.65485 175.29574 207.60117 175.8057 208.93555 176.79883 C 212.37555 179.37883 220.11523 191.68945 220.11523 191.68945 L 234.78516 213.34961 L 243.35547 225.85938 C 243.35547 225.85938 247.72547 231.97938 252.35547 231.85938 C 254.99547 231.78938 258.4757 227.71055 259.5957 226.31055 C 259.8157 226.04055 260.01484 225.75875 260.21484 225.46875 L 271.44531 208.75 L 283.57617 190.50977 C 283.57617 190.50977 285.995 186.86875 289.125 182.71875 C 293.445 176.97875 296.27477 174.5193 302.38477 175.7793 C 312.10477 177.7793 304.43555 187.84961 304.43555 187.84961 L 289.07617 211.68945 C 289.07617 211.68945 276.69523 230.50938 270.86523 238.85938 C 265.03523 247.20937 260.70578 255.21969 260.42578 265.42969 C 260.09578 277.21969 260.28516 299.98047 260.28516 299.98047 L 260.42578 329.78906 C 260.42578 329.78906 261.47547 338.68945 251.60547 338.68945 C 245.24547 338.68945 243.08453 334.63008 243.14453 329.58008 C 243.22453 322.73008 243.14453 265.41992 243.14453 265.41992 C 243.14453 265.41992 243.01477 255.14016 237.38477 246.91016 C 231.75477 238.68016 217.0957 215.42969 217.0957 215.42969 C 217.0957 215.42969 199.52539 188.42906 198.52539 186.78906 C 197.16539 184.40906 194.03594 180.2793 196.83594 177.5293 C 198.41094 175.98242 201.0777 175.22691 203.65234 175.26562 z M 252.35547 186.16992 A 11.28 11.28 0 0 1 263.63477 197.44922 A 11.28 11.28 0 0 1 252.35547 208.73047 A 11.28 11.28 0 0 1 241.07422 197.44922 A 11.28 11.28 0 0 1 252.35547 186.16992 z M 315.32617 216.33008 L 369.04492 216.33008 C 382.09492 216.33008 382.0957 228.33008 382.0957 228.33008 L 382.0957 242.41992 L 369.04492 244.69922 L 368.80469 226.66992 L 313.06445 226.66992 L 313.06445 285.73047 L 369.42578 285.5293 L 369.22461 265.00977 L 382.06445 268.11914 L 382.06445 285.29883 C 382.07445 296.22883 370.73523 295.48047 367.36523 295.48047 C 363.88523 295.65047 323.01508 295.13047 312.45508 295.48047 C 304.75508 295.74047 300.36508 290.12914 300.45508 280.86914 C 300.51508 276.82914 300.45508 240.51922 300.45508 229.94922 C 300.45508 220.23922 305.03617 216.33008 315.32617 216.33008 z M 136.36523 217.41992 L 190.14453 217.41992 C 203.19453 217.41992 204.99609 228.18945 204.99609 228.18945 L 204.99609 238.59961 L 193.52539 239.96875 L 193.28516 227.78906 L 134.17578 227.78906 L 134.17578 286.7793 L 193.96484 286.56055 L 193.96484 261.69922 L 163.22461 261.57031 L 163.22461 252.21875 L 204.92578 252.21875 L 204.92578 286.21875 C 204.94578 297.14875 191.78602 296.57031 188.41602 296.57031 C 184.93602 296.74031 144.06586 296.22031 133.50586 296.57031 C 125.80586 296.83031 121.41586 291.21898 121.50586 281.95898 C 121.56586 277.91898 121.50586 241.60906 121.50586 231.03906 C 121.50586 221.32906 126.08523 217.41992 136.36523 217.41992 z M 298.00586 362.16992 L 302.43555 362.16992 A 1 1 0 0 1 303.43555 363.16992 L 303.43555 369.16992 L 308.18555 369.16992 A 1 1 0 0 1 309.18555 370.16992 L 309.18555 373.78906 A 1 1 0 0 1 308.18555 374.78906 L 303.42578 374.78906 L 303.42578 383.42969 C 303.42578 384.94969 304.23547 385.16016 305.10547 385.16016 A 8.81 8.81 0 0 0 307.74609 384.57031 A 0.83 0.83 0 0 1 308.93555 385.16016 L 310.01562 388.56055 A 1 1 0 0 1 309.42578 389.85938 A 20.44 20.44 0 0 1 302.99609 391.25977 C 298.83609 391.25977 296.99609 388.66977 296.99609 384.25977 L 297.00586 374.78906 L 295.16602 374.78906 A 1 1 0 0 1 294.16602 373.78906 L 294.16602 370.16992 A 1 1 0 0 1 295.16602 369.16992 L 297.00586 369.16992 L 297.00586 363.16992 A 1.06 1.06 0 0 1 298.00586 362.16992 z M 208.99414 368.53711 A 0.9 0.9 0 0 1 209.76562 369.0293 L 215.22461 379.40039 L 215.27539 379.40039 L 218.51562 369.73047 C 218.73562 369.14047 219.16586 369.08008 219.75586 369.08008 L 223.26562 369.08008 C 224.02562 369.08008 224.50563 369.62008 224.26562 370.33008 L 217.51562 390.62891 A 0.94 0.94 0 0 1 216.51562 391.21875 L 216.30469 391.21875 A 1 1 0 0 1 215.43555 390.74023 L 208.63477 378.16016 L 208.52539 378.16016 L 201.79492 390.78906 A 0.94 0.94 0 0 1 200.93555 391.26953 L 200.66602 391.26953 A 0.92 0.92 0 0 1 199.74609 390.67969 L 192.99609 370.33008 C 192.67609 369.62008 193.15602 369.08008 193.91602 369.08008 L 197.80469 369.08008 A 1.13 1.13 0 0 1 198.80469 369.73047 L 202.04492 379.40039 L 202.0957 379.40039 L 207.60547 369.0293 A 0.93 0.93 0 0 1 208.44336 368.53906 A 0.93 0.93 0 0 1 208.47461 368.53906 L 208.9043 368.53906 A 0.9 0.9 0 0 1 208.99414 368.53711 z M 245.80469 368.53906 A 9.91 9.91 0 0 1 255.9043 378.58984 A 12 12 0 0 1 255.79492 380.04883 A 1 1 0 0 1 254.79492 380.95898 L 240.94531 380.95898 A 5.16 5.16 0 0 0 246.13477 385.66016 A 7.52 7.52 0 0 0 250.3457 384.31055 C 250.8857 383.99055 251.34609 383.88055 251.74609 384.31055 L 253.96484 386.84961 A 0.88 0.88 0 0 1 253.9043 388.25 A 11.58 11.58 0 0 1 245.9043 391.25 A 11.34004 11.34004 0 0 1 245.8457 368.57031 L 245.80469 368.53906 z M 274.80469 368.53906 A 12.35 12.35 0 0 1 281.44531 370.21875 A 1.15 1.15 0 0 1 281.93555 371.67969 L 280.58594 374.42969 A 1 1 0 0 1 279.28516 374.81055 A 12.74 12.74 0 0 0 274.80469 373.66992 C 273.51469 373.66992 272.97461 374.20992 272.97461 374.91992 C 272.97461 375.91992 273.97461 376.20953 275.97461 377.01953 C 280.12461 378.63953 283.26563 380.42064 283.26562 384.64062 C 283.26562 388.20063 280.12578 391.21875 274.67578 391.21875 A 12.26 12.26 0 0 1 267.49609 389.21875 A 0.94 0.94 0 0 1 267.13477 388.08984 L 268.5957 385.17969 A 0.82 0.82 0 0 1 269.83594 384.79883 A 12.08 12.08 0 0 0 274.75586 386.08984 C 275.83586 386.08984 276.58594 385.66023 276.58594 384.74023 C 276.58594 383.82023 275.83461 383.17906 272.97461 382.03906 C 268.81461 380.41906 266.86523 378.20992 266.86523 374.91992 C 266.86523 371.62992 269.29469 368.53906 274.80469 368.53906 z M 245.64453 373.50977 A 4.25 4.25 0 0 0 241.43555 377.17969 L 249.58594 377.17969 A 4 4 0 0 0 245.64453 373.50977 z "
     id="path9" />
</svg>
