<?xml version="1.0" encoding="UTF-8" standalone="no"?>
<svg
   xmlns:dc="http://purl.org/dc/elements/1.1/"
   xmlns:cc="http://creativecommons.org/ns#"
   xmlns:rdf="http://www.w3.org/1999/02/22-rdf-syntax-ns#"
   xmlns:svg="http://www.w3.org/2000/svg"
   xmlns="http://www.w3.org/2000/svg"
   xmlns:sodipodi="http://sodipodi.sourceforge.net/DTD/sodipodi-0.dtd"
   xmlns:inkscape="http://www.inkscape.org/namespaces/inkscape"
   viewBox="0 0 500 500"
   version="1.1"
   id="svg36"
   sodipodi:docname="logo_2021-01.svg"
   inkscape:version="0.92.3 (2405546, 2018-03-11)"
   width="500"
   height="500">
  <metadata
     id="metadata40">
    <rdf:RDF>
      <cc:Work
         rdf:about="">
        <dc:format>image/svg+xml</dc:format>
        <dc:type
           rdf:resource="http://purl.org/dc/dcmitype/StillImage" />
        <dc:title></dc:title>
      </cc:Work>
    </rdf:RDF>
  </metadata>
  <sodipodi:namedview
     pagecolor="#ffffff"
     bordercolor="#666666"
     borderopacity="1"
     objecttolerance="10"
     gridtolerance="10"
     guidetolerance="10"
     inkscape:pageopacity="0"
     inkscape:pageshadow="2"
     inkscape:window-width="1314"
     inkscape:window-height="1146"
     id="namedview38"
     showgrid="false"
     inkscape:zoom="0.36237374"
     inkscape:cx="250.44274"
     inkscape:cy="236.64698"
     inkscape:window-x="459"
     inkscape:window-y="107"
     inkscape:window-maximized="0"
     inkscape:current-layer="svg36"
     fit-margin-top="0"
     fit-margin-left="0"
     fit-margin-right="0"
     fit-margin-bottom="0" />
  <defs
     id="defs4">
    <style
       id="style2">.cls-1{font-size:19.35px;font-family:BrandonGrotesque-Regular, Brandon Grotesque;letter-spacing:0.1em;}.cls-1,.cls-2,.cls-4{fill:#fff;}.cls-3{fill:none;stroke-width:10px;}.cls-3,.cls-4,.cls-5{stroke:#fff;stroke-miterlimit:10;}</style>
  </defs>
  <g
     id="Layer_11"
     data-name="Layer 11"
     transform="translate(-145.55726,-42.64698)">
    <text
       class="cls-1"
       transform="translate(555.45,349.88)"
       id="text6"
       style="font-size:19.35000038px;font-family:BrandonGrotesque-Regular, 'Brandon Grotesque';letter-spacing:0.1em;fill:#ffffff">west</text>
  </g>
  <g
     id="Layer_8"
     data-name="Layer 8"
     transform="translate(-127.4748,-61.210288)">
    <path
       d="m 596.14,233.09 c 3.59,10.06 -14.84,26.15 -12.76,36.33 2.13,10.43 25.36,18 26,28.43 0.61,10.59 -21.61,20.83 -22.5,31.25 -0.89,10.42 19.22,24.41 16.84,34.62 -2.38,10.21 -26.6,13.83 -30.41,23.63 -3.81,9.8 11.61,28.79 6.43,38 -5.18,9.21 -29.37,5.78 -35.81,14.15 -6.44,8.37 3.09,30.86 -4.48,38.24 -7.57,7.38 -29.77,-2.77 -38.35,3.47 -8.58,6.24 -5.73,30.44 -15.14,35.4 -9.19,4.84 -27.71,-11.12 -37.77,-7.52 -10.06,3.6 -14.28,27.67 -24.46,29.75 C 413.27,540.93 400,520.4 389.55,521 c -10.59,0.61 -21.44,22.52 -31.86,21.62 -10.42,-0.9 -17.49,-24.35 -27.69,-26.73 -10.2,-2.38 -26.88,15.56 -36.67,11.75 -9.79,-3.81 -9.91,-28.28 -19.08,-33.45 -9.17,-5.17 -30.13,7.43 -38.49,1 -8.36,-6.43 -1.54,-29.88 -8.92,-37.45 -7.38,-7.57 -31,-1.33 -37.2,-9.92 -6.13,-8.43 7,-29 2.06,-38.45 -4.84,-9.19 -29.29,-9.95 -32.88,-20 -3.59,-10.05 14.83,-26.15 12.75,-36.33 -2.13,-10.42 -25.36,-18 -26,-28.43 -0.62,-10.59 21.6,-20.82 22.5,-31.25 0.9,-10.43 -19.22,-24.41 -16.84,-34.62 2.38,-10.21 26.59,-13.83 30.4,-23.62 3.81,-9.79 -11.6,-28.79 -6.43,-38 5.17,-9.21 29.41,-5.78 35.8,-14.12 6.39,-8.34 -3.09,-30.86 4.49,-38.24 7.58,-7.38 29.76,2.77 38.35,-3.46 8.43,-6.13 5.72,-30.44 15.14,-35.4 9.19,-4.84 27.7,11.11 37.77,7.51 10.07,-3.6 14.28,-27.67 24.45,-29.75 10.47,-2.16 23.8,18.34 34.19,17.76 10.59,-0.61 21.44,-22.51 31.86,-21.62 10.42,0.89 17.49,24.36 27.71,26.74 10.22,2.38 26.87,-15.54 36.67,-11.74 9.8,3.8 9.9,28.27 19.07,33.44 9.17,5.17 30.13,-7.42 38.5,-1 8.37,6.42 1.53,29.88 8.91,37.46 7.38,7.58 31,1.33 37.21,9.91 6.12,8.43 -7,29 -2.07,38.45 4.84,9.2 29.29,9.94 32.89,20.03 z"
       id="path9"
       inkscape:connector-curvature="0" />
    <path
       class="cls-2"
       d="m 320.47,431.54 c -0.32,-0.71 0.16,-1.25 0.92,-1.25 h 3.89 a 1.13,1.13 0 0 1 1,0.65 l 3.24,9.67 h 0.05 l 5.51,-10.37 a 0.93,0.93 0 0 1 0.87,-0.49 h 0.43 a 0.9,0.9 0 0 1 0.86,0.49 l 5.46,10.37 h 0.05 l 3.24,-9.67 c 0.22,-0.59 0.65,-0.65 1.24,-0.65 h 3.51 c 0.76,0 1.24,0.54 1,1.25 l -6.75,20.3 a 0.94,0.94 0 0 1 -1,0.59 h -0.21 a 1,1 0 0 1 -0.87,-0.48 l -6.8,-12.58 H 336 L 329.27,452 a 0.94,0.94 0 0 1 -0.86,0.48 h -0.27 a 0.92,0.92 0 0 1 -0.92,-0.59 z"
       id="path11"
       inkscape:connector-curvature="0"
       style="fill:#ffffff" />
    <path
       class="cls-2"
       d="m 373.28,429.75 a 9.91,9.91 0 0 1 10.1,10.05 12,12 0 0 1 -0.11,1.46 1,1 0 0 1 -1,0.91 h -13.85 a 5.16,5.16 0 0 0 5.19,4.7 7.52,7.52 0 0 0 4.21,-1.35 c 0.54,-0.32 1,-0.43 1.4,0 l 2.22,2.54 a 0.88,0.88 0 0 1 -0.06,1.4 11.58,11.58 0 0 1 -8,3 11.34004,11.34004 0 0 1 -0.06,-22.68 z m 3.78,8.64 a 4,4 0 0 0 -3.94,-3.67 4.25,4.25 0 0 0 -4.21,3.67 z"
       id="path13"
       inkscape:connector-curvature="0"
       style="fill:#ffffff" />
    <path
       class="cls-2"
       d="m 394.61,449.3 1.46,-2.91 a 0.82,0.82 0 0 1 1.24,-0.38 12.08,12.08 0 0 0 4.92,1.29 c 1.08,0 1.83,-0.43 1.83,-1.35 0,-0.92 -0.75,-1.56 -3.61,-2.7 -4.16,-1.62 -6.11,-3.83 -6.11,-7.12 0,-3.29 2.43,-6.38 7.94,-6.38 a 12.35,12.35 0 0 1 6.64,1.68 1.15,1.15 0 0 1 0.49,1.46 l -1.35,2.75 a 1,1 0 0 1 -1.3,0.38 12.74,12.74 0 0 0 -4.48,-1.14 c -1.29,0 -1.83,0.54 -1.83,1.25 0,1 1,1.29 3,2.1 4.15,1.62 7.29,3.4 7.29,7.62 0,3.56 -3.14,6.58 -8.59,6.58 a 12.26,12.26 0 0 1 -7.18,-2 0.94,0.94 0 0 1 -0.36,-1.13 z"
       id="path15"
       inkscape:connector-curvature="0"
       style="fill:#ffffff" />
    <path
       class="cls-2"
       d="m 424.48,436 h -1.84 a 1,1 0 0 1 -1,-1 v -3.62 a 1,1 0 0 1 1,-1 h 1.84 v -6 a 1.06,1.06 0 0 1 1,-1 h 4.43 a 1,1 0 0 1 1,1 v 6 h 4.75 a 1,1 0 0 1 1,1 V 435 a 1,1 0 0 1 -1,1 h -4.76 v 8.64 c 0,1.52 0.81,1.73 1.68,1.73 a 8.81,8.81 0 0 0 2.64,-0.59 0.83,0.83 0 0 1 1.19,0.59 l 1.08,3.4 a 1,1 0 0 1 -0.59,1.3 20.44,20.44 0 0 1 -6.43,1.4 c -4.16,0 -6,-2.59 -6,-7 z"
       id="path17"
       inkscape:connector-curvature="0"
       style="fill:#ffffff" />
    <circle
       class="cls-3"
       cx="377.47"
       cy="311.22"
       r="187.92999"
       id="circle19"
       style="fill:none;stroke:#ffffff;stroke-width:10px;stroke-miterlimit:10" />
    <circle
       class="cls-4"
       cx="379.82999"
       cy="258.66"
       r="11.28"
       id="circle21"
       style="fill:#ffffff;stroke:#ffffff;stroke-miterlimit:10" />
    <path
       class="cls-4"
       d="m 496.52,305.91 13.05,-2.28 v -14.09 c 0,0 0,-12 -13.05,-12 H 442.8 c -10.29,0 -14.87,3.91 -14.87,13.62 0,10.57 0.06,46.88 0,50.92 -0.09,9.26 4.3,14.87 12,14.61 10.56,-0.35 51.43,0.17 54.91,0 3.37,0 14.71,0.75 14.7,-10.18 0,-10.57 0,-17.18 0,-17.18 l -12.84,-3.11 0.2,20.52 -56.36,0.2 v -59.06 h 55.74 z"
       id="path23"
       inkscape:connector-curvature="0"
       style="fill:#ffffff;stroke:#ffffff;stroke-miterlimit:10" />
    <path
       class="cls-4"
       d="m 326,248 c -1.36,-2.38 -4.49,-6.51 -1.69,-9.26 2.8,-2.75 9.05,-3 12.1,-0.73 3.44,2.58 11.18,14.89 11.18,14.89 l 14.67,21.66 8.57,12.51 c 0,0 4.37,6.12 9,6 2.64,-0.07 6.12,-4.15 7.24,-5.55 0.22,-0.27 0.42,-0.55 0.62,-0.84 l 11.23,-16.72 12.13,-18.24 c 0,0 2.42,-3.64 5.55,-7.79 4.32,-5.74 7.15,-8.2 13.26,-6.94 9.72,2 2.05,12.07 2.05,12.07 l -15.36,23.84 c 0,0 -12.38,18.82 -18.21,27.17 -5.83,8.35 -10.16,16.36 -10.44,26.57 -0.33,11.79 -0.14,34.55 -0.14,34.55 L 387.9,391 c 0,0 1.05,8.9 -8.82,8.9 -6.36,0 -8.52,-4.06 -8.46,-9.11 0.08,-6.85 0,-64.16 0,-64.16 0,0 -0.13,-10.28 -5.76,-18.51 -5.63,-8.23 -20.29,-31.48 -20.29,-31.48 0,0 -17.57,-27 -18.57,-28.64 z"
       id="path25"
       inkscape:connector-curvature="0"
       style="fill:#ffffff;stroke:#ffffff;stroke-miterlimit:10" />
    <path
       class="cls-4"
       d="m 309.53,221.34 6.85,-42.15 a 63.22,63.22 0 0 0 26.54,-5.09 c 12.45,-5.22 29.18,-4.63 34.66,5.48 0,0 8,-16 32.89,-5.36 a 70,70 0 0 0 27,5.76 l 11.38,42.89 c 0,0 -9.45,1.36 -24.23,-4.13 -16.14,-6 -37.32,-11.81 -45.25,4.35 a 20.65,20.65 0 0 0 -14.8,-10.62 c -21.78,-4.14 -33.51,11.15 -55.04,8.87 z"
       id="path27"
       inkscape:connector-curvature="0"
       style="fill:#ffffff;stroke:#ffffff;stroke-miterlimit:10" />
    <path
       class="cls-5"
       d="m 376,181.87 1.49,32.32 c 0,0 -9,-11.31 -27.34,-7 -8.59,2 -19.6,8.35 -33.31,7.92 l 3.5,-31.35 a 40.29,40.29 0 0 0 17.79,-3.5 c 8.47,-4.06 28.96,-9.19 37.87,1.61 z"
       id="path29"
       inkscape:connector-curvature="0"
       style="stroke:#ffffff;stroke-miterlimit:10" />
    <path
       class="cls-5"
       d="m 379.17,181.74 1.12,32.66 c 0,0 8.45,-11.52 28.27,-6 13.08,3.65 17.21,7.93 32.66,7.73 l -7.29,-31.49 a 66.8,66.8 0 0 1 -22.31,-5.54 c -11.62,-5.26 -24.96,-4.65 -32.45,2.64 z"
       id="path31"
       inkscape:connector-curvature="0"
       style="stroke:#ffffff;stroke-miterlimit:10" />
    <path
       class="cls-4"
       d="m 321,301.18 11.47,-1.37 V 289.4 c 0,0 -1.8,-10.77 -14.85,-10.77 h -53.78 c -10.28,0 -14.86,3.91 -14.86,13.62 0,10.57 0.06,46.88 0,50.92 -0.09,9.26 4.3,14.87 12,14.61 10.56,-0.35 51.43,0.17 54.91,0 3.37,0 16.53,0.58 16.51,-10.35 0,-10.57 0,-34 0,-34 h -41.7 v 9.35 l 30.74,0.13 v 24.86 l -59.79,0.22 V 289 h 59.11 z"
       id="path33"
       inkscape:connector-curvature="0"
       style="fill:#ffffff;stroke:#ffffff;stroke-miterlimit:10" />
  </g>
</svg>
