<?xml version="1.0" standalone="no"?>
<!DOCTYPE svg PUBLIC "-//W3C//DTD SVG 20010904//EN"
 "http://www.w3.org/TR/2001/REC-SVG-20010904/DTD/svg10.dtd">
<svg version="1.0" xmlns="http://www.w3.org/2000/svg"
 width="16.000000pt" height="16.000000pt" viewBox="0 0 16.000000 16.000000"
 preserveAspectRatio="xMidYMid meet">
<metadata>
Created by potrace 1.11, written by Peter Selinger 2001-2013
</metadata>
<g transform="translate(0.000000,16.000000) scale(0.010256,-0.010256)"
fill="#000000" stroke="none">
<path d="M777 1547 c-34 -31 -58 -39 -80 -24 -45 28 -56 28 -92 -7 -33 -33
-36 -34 -76 -23 -44 11 -52 6 -84 -48 -6 -10 -23 -17 -40 -17 -60 -1 -73 -7
-80 -38 -9 -40 -30 -60 -64 -60 -33 0 -51 -16 -51 -48 0 -37 -17 -59 -55 -72
-19 -6 -35 -15 -36 -18 0 -4 -2 -29 -2 -56 -1 -28 -7 -51 -14 -53 -7 -3 -23
-13 -37 -24 -24 -19 -25 -21 -10 -61 14 -41 14 -42 -16 -73 -35 -36 -36 -40
-11 -90 l19 -39 -24 -35 c-21 -32 -22 -37 -9 -56 49 -67 48 -61 31 -94 -22
-42 -20 -54 14 -74 32 -20 41 -43 38 -97 -3 -31 1 -37 37 -55 35 -19 40 -26
41 -57 1 -48 8 -56 59 -69 40 -10 44 -14 54 -55 10 -39 14 -44 40 -44 47 0 77
-16 91 -49 11 -28 27 -37 55 -31 52 10 62 7 88 -25 27 -35 33 -36 80 -17 39
16 44 15 74 -12 28 -26 60 -27 79 -1 15 20 53 21 88 2 34 -18 49 -14 71 20 16
24 21 25 71 19 54 -6 55 -6 75 29 21 36 30 39 85 36 31 -2 44 13 59 66 4 16
17 24 47 30 45 9 54 20 63 75 5 30 11 38 35 43 46 10 61 30 54 74 -6 40 -5 41
48 81 26 20 26 22 14 58 -15 42 -8 66 26 90 22 16 23 41 3 68 -21 27 -18 57 8
90 12 16 22 29 22 30 0 0 -15 17 -32 38 -38 43 -37 39 -17 77 18 35 11 65 -17
74 -27 9 -40 38 -37 87 3 40 1 43 -34 60 -37 17 -44 30 -50 88 -2 19 -12 27
-42 35 -43 12 -66 37 -66 72 0 23 -12 29 -71 36 -34 4 -59 24 -59 49 0 25 -36
37 -77 25 -32 -10 -36 -9 -67 27 -29 35 -35 37 -55 26 -41 -21 -67 -21 -97 2
-33 27 -50 30 -67 15z"/>
</g>
</svg>
